<?xml version="1.0" encoding="UTF-8" standalone="no"?><!DOCTYPE svg PUBLIC "-//W3C//DTD SVG 1.1//EN" "http://www.w3.org/Graphics/SVG/1.1/DTD/svg11.dtd"><svg width="100%" height="100%" viewBox="0 0 512 512" version="1.1" xmlns="http://www.w3.org/2000/svg" xmlns:xlink="http://www.w3.org/1999/xlink" xml:space="preserve" xmlns:serif="http://www.serif.com/" style="fill-rule:evenodd;clip-rule:evenodd;stroke-linecap:round;stroke-linejoin:round;stroke-miterlimit:1.5;"><rect id="Artboard1" x="0" y="0" width="512" height="512" style="fill:none;"/><g id="Artboard11" serif:id="Artboard1"><g transform="matrix(1,0,0,1,4,-22)"><g transform="matrix(0.782491,-0.622662,0.622662,0.782491,-76.8503,122.391)"><text x="136.759px" y="171.195px" style="font-family:'FrankRuhlLibre-Medium', 'Frank Ruhl Libre';font-weight:500;font-size:72px;fill:#736f4e;">C</text></g><g transform="matrix(0.911093,-0.412202,0.412202,0.911093,-44.4551,82.9455)"><text x="170.053px" y="144.526px" style="font-family:'FrankRuhlLibre-Medium', 'Frank Ruhl Libre';font-weight:500;font-size:72px;fill:#736f4e;">a</text></g><g transform="matrix(0.976562,-0.215234,0.215234,0.976562,-23.1928,46.6134)"><text x="202.436px" y="129.8px" style="font-family:'FrankRuhlLibre-Medium', 'Frank Ruhl Libre';font-weight:500;font-size:72px;fill:#736f4e;">r</text></g><g transform="matrix(0.998235,-0.0593914,0.0593914,0.998235,-6.93354,13.9378)"><text x="231.004px" y="123.609px" style="font-family:'FrankRuhlLibre-Medium', 'Frank Ruhl Libre';font-weight:500;font-size:72px;fill:#736f4e;">t</text></g><g transform="matrix(0.992536,0.121951,-0.121951,0.992536,16.6804,-29.7606)"><text x="251.466px" y="121.388px" style="font-family:'FrankRuhlLibre-Medium', 'Frank Ruhl Libre';font-weight:500;font-size:72px;fill:#736f4e;">a</text></g><g transform="matrix(0.888197,0.459462,-0.459462,0.888197,93.679,-125.118)"><text x="303.931px" y="129.932px" style="font-family:'FrankRuhlLibre-Medium', 'Frank Ruhl Libre';font-weight:500;font-size:72px;fill:#736f4e;">d</text></g><g transform="matrix(0.766924,0.641738,-0.641738,0.766924,172.856,-182.235)"><text x="337.306px" y="146.849px" style="font-family:'FrankRuhlLibre-Medium', 'Frank Ruhl Libre';font-weight:500;font-size:72px;fill:#736f4e;">e</text></g><g transform="matrix(-0.107056,0.994253,-0.994253,-0.107056,292.992,202.167)"><text x="55.712px" y="232.652px" style="font-family:'FrankRuhlLibre-Medium', 'Frank Ruhl Libre';font-weight:500;font-size:72px;fill:#736f4e;">A</text></g><g transform="matrix(0.101951,0.994789,-0.994789,0.101951,325.958,201.666)"><text x="51.284px" y="281.368px" style="font-family:'FrankRuhlLibre-Medium', 'Frank Ruhl Libre';font-weight:500;font-size:72px;fill:#736f4e;">z</text></g><g transform="matrix(0.280906,0.959735,-0.959735,0.280906,343.007,174.896)"><text x="54.791px" y="316.344px" style="font-family:'FrankRuhlLibre-Medium', 'Frank Ruhl Libre';font-weight:500;font-size:72px;fill:#736f4e;">e</text></g><g transform="matrix(0.423292,0.905993,-0.905993,0.423292,357.56,143.482)"><text x="66.077px" y="352.6px" style="font-family:'FrankRuhlLibre-Medium', 'Frank Ruhl Libre';font-weight:500;font-size:72px;fill:#736f4e;">i</text></g><g transform="matrix(0.526503,0.850173,-0.850173,0.526503,353.138,112.338)"><text x="75.717px" y="373.202px" style="font-family:'FrankRuhlLibre-Medium', 'Frank Ruhl Libre';font-weight:500;font-size:72px;fill:#736f4e;">t</text></g><g transform="matrix(0.649141,0.760668,-0.760668,0.649141,330.151,71.3466)"><text x="87.735px" y="393.56px" style="font-family:'FrankRuhlLibre-Medium', 'Frank Ruhl Libre';font-weight:500;font-size:72px;fill:#736f4e;">e</text></g><g transform="matrix(0.767881,0.640593,-0.640593,0.767881,295.751,26.3149)"><text x="111.564px" y="421.257px" style="font-family:'FrankRuhlLibre-Medium', 'Frank Ruhl Libre';font-weight:500;font-size:72px;fill:#736f4e;">s</text></g><g transform="matrix(0.932707,0.360634,-0.360634,0.932707,175.003,-26.0894)"><text x="157.411px" y="455.893px" style="font-family:'FrankRuhlLibre-Medium', 'Frank Ruhl Libre';font-weight:500;font-size:72px;fill:#736f4e;">V</text></g><g transform="matrix(0.984522,0.175263,-0.175263,0.984522,86.0868,-28.7885)"><text x="206.031px" y="472.99px" style="font-family:'FrankRuhlLibre-Medium', 'Frank Ruhl Libre';font-weight:500;font-size:72px;fill:#736f4e;">i</text></g><g transform="matrix(0.999246,0.0388267,-0.0388267,0.999246,18.7003,-8.48279)"><text x="227.746px" y="477.211px" style="font-family:'FrankRuhlLibre-Medium', 'Frank Ruhl Libre';font-weight:500;font-size:72px;fill:#736f4e;">r</text></g><g transform="matrix(0.9885,-0.15122,0.15122,0.9885,-69.401,45.0962)"><text x="261.801px" y="478.851px" style="font-family:'FrankRuhlLibre-Medium', 'Frank Ruhl Libre';font-weight:500;font-size:72px;fill:#736f4e;">g</text></g><g transform="matrix(0.938545,-0.345156,0.345156,0.938545,-144.332,133.768)"><text x="303.484px" y="472.201px" style="font-family:'FrankRuhlLibre-Medium', 'Frank Ruhl Libre';font-weight:500;font-size:72px;fill:#736f4e;">e</text></g><g transform="matrix(0.815296,-0.579045,0.579045,0.815296,-203.507,282.367)"><text x="340.855px" y="460.179px" style="font-family:'FrankRuhlLibre-Medium', 'Frank Ruhl Libre';font-weight:500;font-size:72px;fill:#736f4e;">m</text></g><g transform="matrix(0.54366,-0.839305,0.839305,0.54366,-153.64,527.274)"><text x="408.065px" y="404.926px" style="font-family:'FrankRuhlLibre-Medium', 'Frank Ruhl Libre';font-weight:500;font-size:72px;fill:#736f4e;">E</text></g><g transform="matrix(0.355609,-0.934635,0.934635,0.355609,-63.9279,640.258)"><text x="432.356px" y="366.49px" style="font-family:'FrankRuhlLibre-Medium', 'Frank Ruhl Libre';font-weight:500;font-size:72px;fill:#736f4e;">x</text></g><g transform="matrix(0.188383,-0.982096,0.982096,0.188383,40.7657,703.848)"><text x="446.228px" y="327.26px" style="font-family:'FrankRuhlLibre-Medium', 'Frank Ruhl Libre';font-weight:500;font-size:72px;fill:#736f4e;">t</text></g><g transform="matrix(0.0340763,-0.999419,0.999419,0.0340763,134.824,742.09)"><text x="451.324px" y="301.295px" style="font-family:'FrankRuhlLibre-Medium', 'Frank Ruhl Libre';font-weight:500;font-size:72px;fill:#736f4e;">r</text></g><g transform="matrix(-0.15122,-0.9885,0.9885,-0.15122,257.055,755.055)"><text x="452.693px" y="267.167px" style="font-family:'FrankRuhlLibre-Medium', 'Frank Ruhl Libre';font-weight:500;font-size:72px;fill:#736f4e;">a</text></g></g><circle cx="256" cy="256" r="227" style="fill:none;stroke:#736f4e;stroke-width:8px;"/><circle cx="256" cy="256" r="135" style="fill:none;stroke:#736f4e;stroke-width:4px;"/><circle cx="100.3" cy="173.219" r="8" style="fill:#736f4e;"/><circle cx="411.7" cy="173.219" r="8" style="fill:#736f4e;"/><path d="M201.29,143.707c12.175,2.74 28.961,15.089 37.515,37.142c5.806,14.968 9.764,31.4 9.764,52.151c0,69.751 -22.494,66.49 -22.494,93c-0,16.557 13.442,30 30,30c16.557,-0 30,-13.443 30,-30c-0,-25.51 -22.502,-22.294 -22.502,-93c0,-41.642 17.5,-63.257 22.502,-68.374c12.667,-12.961 20.485,-18.492 25.218,-20.706c41.324,20.398 69.782,62.979 69.782,112.155c-0,68.989 -56.011,125 -125,125c-68.989,-0 -125,-56.011 -125,-125c-0,-49.341 28.65,-92.044 70.215,-112.368Z" style="fill:#736f4e;stroke:#736f4e;stroke-width:4px;"/></g></svg>