<?xml version="1.0" encoding="UTF-8" standalone="no"?><!DOCTYPE svg PUBLIC "-//W3C//DTD SVG 1.1//EN" "http://www.w3.org/Graphics/SVG/1.1/DTD/svg11.dtd"><svg width="100%" height="100%" viewBox="0 0 512 512" version="1.1" xmlns="http://www.w3.org/2000/svg" xmlns:xlink="http://www.w3.org/1999/xlink" xml:space="preserve" xmlns:serif="http://www.serif.com/" style="fill-rule:evenodd;clip-rule:evenodd;stroke-linecap:round;stroke-linejoin:round;stroke-miterlimit:1.5;"><rect id="Artboard1" x="0" y="0" width="512" height="512" style="fill:none;"/><g id="Artboard11" serif:id="Artboard1"><circle cx="256" cy="256" r="227" style="fill:#fff;stroke:#736f4e;stroke-width:8px;"/><g transform="matrix(1,0,0,1,4,-22)"><g transform="matrix(0.915449,-0.402434,0.402434,0.915449,-44.272,79.8171)"><g transform="matrix(72,0,0,72,167.815,145.269)"><path d="M0.379,0.012c-0.109,-0 -0.191,-0.029 -0.248,-0.086c-0.056,-0.058 -0.084,-0.141 -0.084,-0.248c0,-0.113 0.029,-0.199 0.087,-0.26c0.058,-0.06 0.141,-0.09 0.248,-0.09c0.025,0 0.048,0.003 0.068,0.008c0.019,0.005 0.039,0.011 0.06,0.019c0.015,0.007 0.026,0.01 0.033,0.01c0.007,0 0.012,-0.001 0.015,-0.003c0.003,-0.003 0.006,-0.006 0.009,-0.011l0.005,-0.011l0.025,0l0.01,0.189l-0.025,0c-0.009,-0.045 -0.029,-0.083 -0.06,-0.114c-0.03,-0.031 -0.074,-0.047 -0.131,-0.047c-0.054,0 -0.097,0.017 -0.128,0.05c-0.031,0.033 -0.052,0.071 -0.063,0.116c-0.011,0.044 -0.016,0.088 -0.016,0.131c0,0.088 0.016,0.161 0.048,0.219c0.032,0.058 0.083,0.087 0.154,0.087c0.063,0 0.108,-0.014 0.137,-0.042c0.029,-0.028 0.051,-0.061 0.065,-0.1l0.027,0.014c-0.006,0.024 -0.018,0.049 -0.036,0.075c-0.017,0.025 -0.043,0.047 -0.076,0.066c-0.033,0.019 -0.075,0.028 -0.124,0.028Z" style="fill:#736f4e;fill-rule:nonzero;"/></g></g><g transform="matrix(0.98639,-0.164423,0.164423,0.98639,-18.2363,35.729)"><g transform="matrix(72,0,0,72,206.702,128.021)"><path d="M0.506,-0.021c-0.015,0.009 -0.031,0.016 -0.047,0.022c-0.018,0.006 -0.039,0.009 -0.064,0.009c-0.027,-0 -0.047,-0.004 -0.058,-0.013c-0.012,-0.009 -0.018,-0.027 -0.018,-0.054c-0.023,0.02 -0.046,0.036 -0.07,0.049c-0.024,0.012 -0.051,0.018 -0.08,0.018c-0.036,-0 -0.066,-0.009 -0.089,-0.026c-0.023,-0.017 -0.035,-0.042 -0.035,-0.074c0,-0.045 0.024,-0.085 0.073,-0.119c0.048,-0.035 0.115,-0.06 0.201,-0.075l0,-0.061c-0.001,-0.028 -0.008,-0.049 -0.022,-0.063c-0.013,-0.014 -0.037,-0.021 -0.071,-0.021c-0.019,0 -0.035,0.003 -0.048,0.009c-0.014,0.005 -0.021,0.011 -0.021,0.017c0,0.006 0.004,0.013 0.012,0.021c0.005,0.006 0.009,0.011 0.012,0.016c0.003,0.005 0.004,0.011 0.004,0.019c-0,0.017 -0.005,0.03 -0.015,0.039c-0.01,0.01 -0.023,0.015 -0.04,0.015c-0.017,0 -0.031,-0.005 -0.042,-0.016c-0.011,-0.011 -0.016,-0.025 -0.016,-0.042c-0,-0.022 0.008,-0.043 0.024,-0.062c0.017,-0.019 0.04,-0.035 0.071,-0.047c0.031,-0.011 0.068,-0.017 0.11,-0.017c0.053,0 0.092,0.011 0.117,0.033c0.025,0.022 0.038,0.06 0.038,0.114l0,0.222c0,0.026 0.003,0.044 0.009,0.053c0.005,0.01 0.014,0.015 0.027,0.015c0.007,-0 0.013,-0.001 0.018,-0.004c0.005,-0.002 0.009,-0.003 0.01,-0.004l0.01,0.027Zm-0.348,-0.104c0,0.042 0.025,0.063 0.074,0.063c0.027,-0 0.056,-0.012 0.087,-0.037l0,-0.146c-0.055,0.012 -0.096,0.027 -0.122,0.046c-0.026,0.019 -0.039,0.044 -0.039,0.074Z" style="fill:#736f4e;fill-rule:nonzero;"/></g></g><g transform="matrix(0.999183,0.0404098,-0.0404098,0.999183,5.13203,-9.6809)"><g transform="matrix(72,0,0,72,242.036,122.107)"><path d="M0.337,-0.481c0.029,0 0.05,0.008 0.064,0.024c0.013,0.017 0.02,0.037 0.02,0.06c-0,0.022 -0.006,0.039 -0.017,0.051c-0.011,0.013 -0.027,0.019 -0.048,0.019c-0.018,-0 -0.032,-0.005 -0.043,-0.014c-0.01,-0.009 -0.015,-0.022 -0.015,-0.039c-0,-0.01 0.001,-0.018 0.004,-0.024c0.003,-0.006 0.007,-0.012 0.012,-0.017c0.005,-0.005 0.008,-0.009 0.008,-0.011c-0,-0.003 -0.001,-0.005 -0.003,-0.007c-0.002,-0.002 -0.005,-0.003 -0.01,-0.003c-0.012,0 -0.025,0.008 -0.04,0.023c-0.015,0.015 -0.027,0.036 -0.038,0.062c-0.011,0.025 -0.016,0.053 -0.016,0.082l-0,0.192c-0,0.015 0.002,0.025 0.005,0.032c0.004,0.007 0.012,0.011 0.023,0.014c0.011,0.003 0.03,0.004 0.055,0.004l-0,0.033l-0.264,-0l-0,-0.033c0.02,-0 0.034,-0.002 0.043,-0.005c0.009,-0.003 0.014,-0.007 0.017,-0.014c0.003,-0.007 0.004,-0.017 0.004,-0.031l-0,-0.289c-0,-0.018 -0.002,-0.03 -0.006,-0.037c-0.004,-0.006 -0.011,-0.009 -0.022,-0.009l-0.03,-0l-0,-0.034l0.144,-0.023l0.028,0l-0,0.087l0.002,-0c0.029,-0.062 0.07,-0.093 0.123,-0.093Z" style="fill:#736f4e;fill-rule:nonzero;"/></g></g><g transform="matrix(0.980588,0.196078,-0.196078,0.980588,29.4557,-50.7843)"><g transform="matrix(72,0,0,72,271.215,123.374)"><path d="M0.185,0.011c-0.037,-0 -0.065,-0.01 -0.086,-0.031c-0.021,-0.02 -0.031,-0.049 -0.031,-0.086l0,-0.324l-0.059,0l0,-0.033c0.035,-0.011 0.062,-0.029 0.083,-0.055c0.021,-0.027 0.037,-0.063 0.049,-0.109l0.042,0l-0,0.157l0.107,0l-0,0.04l-0.107,0l-0,0.289c-0,0.03 0.006,0.052 0.017,0.067c0.011,0.015 0.029,0.022 0.053,0.022c0.018,0 0.035,-0.003 0.05,-0.01l0.011,0.025c-0.025,0.016 -0.046,0.028 -0.064,0.036c-0.017,0.008 -0.039,0.012 -0.065,0.012Z" style="fill:#736f4e;fill-rule:nonzero;"/></g></g><g transform="matrix(0.927919,0.372781,-0.372781,0.927919,68.1086,-99.5167)"><g transform="matrix(72,0,0,72,291.391,126.361)"><path d="M0.506,-0.021c-0.015,0.009 -0.031,0.016 -0.047,0.022c-0.018,0.006 -0.039,0.009 -0.064,0.009c-0.027,-0 -0.047,-0.004 -0.058,-0.013c-0.012,-0.009 -0.018,-0.027 -0.018,-0.054c-0.023,0.02 -0.046,0.036 -0.07,0.049c-0.024,0.012 -0.051,0.018 -0.08,0.018c-0.036,-0 -0.066,-0.009 -0.089,-0.026c-0.023,-0.017 -0.035,-0.042 -0.035,-0.074c0,-0.045 0.024,-0.085 0.073,-0.119c0.048,-0.035 0.115,-0.06 0.201,-0.075l0,-0.061c-0.001,-0.028 -0.008,-0.049 -0.022,-0.063c-0.013,-0.014 -0.037,-0.021 -0.071,-0.021c-0.019,0 -0.035,0.003 -0.048,0.009c-0.014,0.005 -0.021,0.011 -0.021,0.017c0,0.006 0.004,0.013 0.012,0.021c0.005,0.006 0.009,0.011 0.012,0.016c0.003,0.005 0.004,0.011 0.004,0.019c-0,0.017 -0.005,0.03 -0.015,0.039c-0.01,0.01 -0.023,0.015 -0.04,0.015c-0.017,0 -0.031,-0.005 -0.042,-0.016c-0.011,-0.011 -0.016,-0.025 -0.016,-0.042c-0,-0.022 0.008,-0.043 0.024,-0.062c0.017,-0.019 0.04,-0.035 0.071,-0.047c0.031,-0.011 0.068,-0.017 0.11,-0.017c0.053,0 0.092,0.011 0.117,0.033c0.025,0.022 0.038,0.06 0.038,0.114l0,0.222c0,0.026 0.003,0.044 0.009,0.053c0.005,0.01 0.014,0.015 0.027,0.015c0.007,-0 0.013,-0.001 0.018,-0.004c0.005,-0.002 0.009,-0.003 0.01,-0.004l0.01,0.027Zm-0.348,-0.104c0,0.042 0.025,0.063 0.074,0.063c0.027,-0 0.056,-0.012 0.087,-0.037l0,-0.146c-0.055,0.012 -0.096,0.027 -0.122,0.046c-0.026,0.019 -0.039,0.044 -0.039,0.074Z" style="fill:#736f4e;fill-rule:nonzero;"/></g></g><g transform="matrix(-0.107056,0.994253,-0.994253,-0.107056,292.992,202.167)"><g transform="matrix(72,0,0,72,55.7121,232.652)"><path d="M0.581,-0.083c0.008,0.021 0.017,0.034 0.026,0.041c0.009,0.006 0.026,0.009 0.051,0.009l0,0.033l-0.27,-0l0,-0.033l0.045,0c0.009,0 0.016,-0.002 0.021,-0.007c0.005,-0.005 0.007,-0.011 0.007,-0.018c0,-0.005 -0.001,-0.011 -0.003,-0.017l-0.058,-0.168l-0.204,0l-0.056,0.171c-0.002,0.007 -0.003,0.013 -0.003,0.018c0,0.014 0.009,0.021 0.027,0.021l0.049,0l-0,0.033l-0.208,-0l-0,-0.033c0.026,0 0.044,-0.004 0.054,-0.011c0.01,-0.008 0.019,-0.023 0.027,-0.044l0.208,-0.572l0.085,0l0.202,0.577Zm-0.192,-0.193l-0.091,-0.266l-0.003,0l-0.088,0.266l0.182,0Z" style="fill:#736f4e;fill-rule:nonzero;"/></g></g><g transform="matrix(0.101951,0.994789,-0.994789,0.101951,325.958,201.666)"><g transform="matrix(72,0,0,72,51.2841,281.368)"><path d="M0.029,-0.034l0.275,-0.397l-0.08,0c-0.032,0 -0.057,0.004 -0.075,0.011c-0.017,0.007 -0.031,0.019 -0.04,0.035c-0.009,0.015 -0.016,0.037 -0.023,0.066l-0.026,0l0.011,-0.151l0.366,0l0,0.035l-0.275,0.396l0.111,-0c0.035,-0 0.062,-0.004 0.081,-0.011c0.019,-0.007 0.034,-0.02 0.045,-0.037c0.01,-0.017 0.019,-0.041 0.027,-0.073l0.026,-0l-0.011,0.16l-0.412,-0l0,-0.034Z" style="fill:#736f4e;fill-rule:nonzero;"/></g></g><g transform="matrix(0.280906,0.959735,-0.959735,0.280906,343.007,174.896)"><g transform="matrix(72,0,0,72,54.7913,316.344)"><path d="M0.47,-0.229l-0.3,0c0.002,0.057 0.013,0.101 0.033,0.131c0.02,0.03 0.054,0.045 0.101,0.045c0.033,0 0.06,-0.007 0.081,-0.022c0.021,-0.015 0.038,-0.038 0.051,-0.068l0.031,0.018c-0.017,0.041 -0.04,0.073 -0.07,0.098c-0.03,0.025 -0.075,0.037 -0.135,0.037c-0.143,-0 -0.215,-0.081 -0.215,-0.243c-0,-0.082 0.018,-0.144 0.054,-0.185c0.037,-0.041 0.09,-0.062 0.16,-0.062c0.073,0 0.126,0.021 0.159,0.064c0.033,0.043 0.05,0.101 0.05,0.174l-0,0.013Zm-0.122,-0.04c-0,-0.059 -0.005,-0.103 -0.016,-0.13c-0.011,-0.027 -0.033,-0.041 -0.067,-0.041c-0.033,-0 -0.057,0.014 -0.072,0.041c-0.015,0.027 -0.023,0.071 -0.024,0.13l0.179,-0Z" style="fill:#736f4e;fill-rule:nonzero;"/></g></g><g transform="matrix(0.423292,0.905993,-0.905993,0.423292,357.56,143.482)"><g transform="matrix(72,0,0,72,66.0766,352.6)"><path d="M0.148,-0.542c-0.019,0 -0.035,-0.006 -0.047,-0.018c-0.012,-0.013 -0.018,-0.028 -0.018,-0.047c0,-0.019 0.006,-0.034 0.018,-0.047c0.012,-0.013 0.028,-0.019 0.047,-0.019c0.02,0 0.036,0.006 0.048,0.019c0.012,0.013 0.018,0.028 0.018,0.047c-0,0.019 -0.006,0.034 -0.019,0.047c-0.013,0.012 -0.028,0.018 -0.047,0.018Zm-0.119,0.509c0.02,0 0.034,-0.001 0.043,-0.004c0.009,-0.003 0.014,-0.008 0.017,-0.015c0.003,-0.007 0.004,-0.017 0.004,-0.031l-0,-0.289c-0,-0.019 -0.002,-0.031 -0.006,-0.037c-0.003,-0.006 -0.011,-0.009 -0.022,-0.009l-0.03,0l0,-0.034l0.147,-0.023l0.028,0l0,0.392c0,0.015 0.001,0.025 0.004,0.032c0.003,0.007 0.008,0.011 0.017,0.014c0.009,0.003 0.023,0.004 0.043,0.004l0,0.033l-0.245,-0l0,-0.033Z" style="fill:#736f4e;fill-rule:nonzero;"/></g></g><g transform="matrix(0.526503,0.850173,-0.850173,0.526503,353.138,112.338)"><g transform="matrix(72,0,0,72,75.7171,373.202)"><path d="M0.185,0.011c-0.037,-0 -0.065,-0.01 -0.086,-0.031c-0.021,-0.02 -0.031,-0.049 -0.031,-0.086l0,-0.324l-0.059,0l0,-0.033c0.035,-0.011 0.062,-0.029 0.083,-0.055c0.021,-0.027 0.037,-0.063 0.049,-0.109l0.042,0l-0,0.157l0.107,0l-0,0.04l-0.107,0l-0,0.289c-0,0.03 0.006,0.052 0.017,0.067c0.011,0.015 0.029,0.022 0.053,0.022c0.018,0 0.035,-0.003 0.05,-0.01l0.011,0.025c-0.025,0.016 -0.046,0.028 -0.064,0.036c-0.017,0.008 -0.039,0.012 -0.065,0.012Z" style="fill:#736f4e;fill-rule:nonzero;"/></g></g><g transform="matrix(0.649141,0.760668,-0.760668,0.649141,330.151,71.3466)"><g transform="matrix(72,0,0,72,87.7352,393.56)"><path d="M0.47,-0.229l-0.3,0c0.002,0.057 0.013,0.101 0.033,0.131c0.02,0.03 0.054,0.045 0.101,0.045c0.033,0 0.06,-0.007 0.081,-0.022c0.021,-0.015 0.038,-0.038 0.051,-0.068l0.031,0.018c-0.017,0.041 -0.04,0.073 -0.07,0.098c-0.03,0.025 -0.075,0.037 -0.135,0.037c-0.143,-0 -0.215,-0.081 -0.215,-0.243c-0,-0.082 0.018,-0.144 0.054,-0.185c0.037,-0.041 0.09,-0.062 0.16,-0.062c0.073,0 0.126,0.021 0.159,0.064c0.033,0.043 0.05,0.101 0.05,0.174l-0,0.013Zm-0.122,-0.04c-0,-0.059 -0.005,-0.103 -0.016,-0.13c-0.011,-0.027 -0.033,-0.041 -0.067,-0.041c-0.033,-0 -0.057,0.014 -0.072,0.041c-0.015,0.027 -0.023,0.071 -0.024,0.13l0.179,-0Z" style="fill:#736f4e;fill-rule:nonzero;"/></g></g><g transform="matrix(0.767881,0.640593,-0.640593,0.767881,295.751,26.3149)"><g transform="matrix(72,0,0,72,111.564,421.257)"><path d="M0.23,0.011c-0.018,-0 -0.033,-0.002 -0.045,-0.005c-0.011,-0.003 -0.025,-0.007 -0.041,-0.012c-0.015,-0.007 -0.028,-0.01 -0.038,-0.01c-0.008,0 -0.014,0.001 -0.018,0.005c-0.005,0.002 -0.009,0.007 -0.013,0.014l-0.019,-0l-0.009,-0.165l0.025,0c0.013,0.04 0.033,0.072 0.061,0.097c0.027,0.025 0.058,0.037 0.091,0.037c0.024,0 0.043,-0.006 0.056,-0.019c0.013,-0.013 0.02,-0.031 0.02,-0.053c0,-0.014 -0.003,-0.025 -0.009,-0.035c-0.006,-0.008 -0.015,-0.017 -0.027,-0.024c-0.012,-0.007 -0.032,-0.018 -0.059,-0.031l-0.02,-0.01c-0.046,-0.023 -0.078,-0.044 -0.095,-0.064c-0.018,-0.019 -0.027,-0.045 -0.027,-0.076c0,-0.045 0.015,-0.079 0.044,-0.103c0.029,-0.025 0.069,-0.037 0.12,-0.037c0.027,0 0.053,0.004 0.078,0.013c0.015,0.004 0.025,0.006 0.03,0.006c0.007,0 0.012,-0.001 0.015,-0.004c0.003,-0.003 0.005,-0.005 0.006,-0.008c0.001,-0.003 0.001,-0.005 0.001,-0.006l0.021,0l0.008,0.147l-0.025,0c-0.008,-0.032 -0.023,-0.058 -0.046,-0.078c-0.024,-0.02 -0.05,-0.03 -0.079,-0.03c-0.021,0 -0.038,0.005 -0.051,0.015c-0.014,0.01 -0.021,0.023 -0.021,0.04c0,0.03 0.023,0.055 0.068,0.076l0.031,0.014c0.032,0.015 0.058,0.028 0.077,0.041c0.019,0.013 0.035,0.028 0.046,0.047c0.011,0.018 0.017,0.04 0.017,0.067c0,0.045 -0.016,0.082 -0.048,0.11c-0.031,0.027 -0.073,0.041 -0.125,0.041Z" style="fill:#736f4e;fill-rule:nonzero;"/></g></g><g transform="matrix(0.932707,0.360634,-0.360634,0.932707,175.003,-26.0894)"><g transform="matrix(72,0,0,72,157.411,455.893)"><path d="M0.09,-0.577c-0.005,-0.014 -0.009,-0.024 -0.014,-0.031c-0.005,-0.007 -0.012,-0.012 -0.021,-0.015c-0.009,-0.002 -0.023,-0.004 -0.04,-0.004l0,-0.033l0.262,0l0,0.033l-0.044,0c-0.016,0 -0.024,0.006 -0.024,0.018c-0,0.005 0.001,0.01 0.003,0.016l0.154,0.466l0.005,-0l0.146,-0.453c0.004,-0.012 0.006,-0.021 0.006,-0.028c0,-0.007 -0.002,-0.012 -0.006,-0.015c-0.004,-0.002 -0.01,-0.004 -0.019,-0.004l-0.048,0l0,-0.033l0.207,0l0,0.033c-0.023,0 -0.041,0.004 -0.053,0.012c-0.012,0.008 -0.022,0.022 -0.029,0.042l-0.203,0.573l-0.087,-0l-0.195,-0.577Z" style="fill:#736f4e;fill-rule:nonzero;"/></g></g><g transform="matrix(0.984522,0.175263,-0.175263,0.984522,86.0868,-28.7885)"><g transform="matrix(72,0,0,72,206.031,472.99)"><path d="M0.148,-0.542c-0.019,0 -0.035,-0.006 -0.047,-0.018c-0.012,-0.013 -0.018,-0.028 -0.018,-0.047c0,-0.019 0.006,-0.034 0.018,-0.047c0.012,-0.013 0.028,-0.019 0.047,-0.019c0.02,0 0.036,0.006 0.048,0.019c0.012,0.013 0.018,0.028 0.018,0.047c-0,0.019 -0.006,0.034 -0.019,0.047c-0.013,0.012 -0.028,0.018 -0.047,0.018Zm-0.119,0.509c0.02,0 0.034,-0.001 0.043,-0.004c0.009,-0.003 0.014,-0.008 0.017,-0.015c0.003,-0.007 0.004,-0.017 0.004,-0.031l-0,-0.289c-0,-0.019 -0.002,-0.031 -0.006,-0.037c-0.003,-0.006 -0.011,-0.009 -0.022,-0.009l-0.03,0l0,-0.034l0.147,-0.023l0.028,0l0,0.392c0,0.015 0.001,0.025 0.004,0.032c0.003,0.007 0.008,0.011 0.017,0.014c0.009,0.003 0.023,0.004 0.043,0.004l0,0.033l-0.245,-0l0,-0.033Z" style="fill:#736f4e;fill-rule:nonzero;"/></g></g><g transform="matrix(0.999246,0.0388267,-0.0388267,0.999246,18.7003,-8.48279)"><g transform="matrix(72,0,0,72,227.746,477.211)"><path d="M0.337,-0.481c0.029,0 0.05,0.008 0.064,0.024c0.013,0.017 0.02,0.037 0.02,0.06c-0,0.022 -0.006,0.039 -0.017,0.051c-0.011,0.013 -0.027,0.019 -0.048,0.019c-0.018,-0 -0.032,-0.005 -0.043,-0.014c-0.01,-0.009 -0.015,-0.022 -0.015,-0.039c-0,-0.01 0.001,-0.018 0.004,-0.024c0.003,-0.006 0.007,-0.012 0.012,-0.017c0.005,-0.005 0.008,-0.009 0.008,-0.011c-0,-0.003 -0.001,-0.005 -0.003,-0.007c-0.002,-0.002 -0.005,-0.003 -0.01,-0.003c-0.012,0 -0.025,0.008 -0.04,0.023c-0.015,0.015 -0.027,0.036 -0.038,0.062c-0.011,0.025 -0.016,0.053 -0.016,0.082l-0,0.192c-0,0.015 0.002,0.025 0.005,0.032c0.004,0.007 0.012,0.011 0.023,0.014c0.011,0.003 0.03,0.004 0.055,0.004l-0,0.033l-0.264,-0l-0,-0.033c0.02,-0 0.034,-0.002 0.043,-0.005c0.009,-0.003 0.014,-0.007 0.017,-0.014c0.003,-0.007 0.004,-0.017 0.004,-0.031l-0,-0.289c-0,-0.018 -0.002,-0.03 -0.006,-0.037c-0.004,-0.006 -0.011,-0.009 -0.022,-0.009l-0.03,-0l-0,-0.034l0.144,-0.023l0.028,0l-0,0.087l0.002,-0c0.029,-0.062 0.07,-0.093 0.123,-0.093Z" style="fill:#736f4e;fill-rule:nonzero;"/></g></g><g transform="matrix(0.9885,-0.15122,0.15122,0.9885,-69.401,45.0962)"><g transform="matrix(72,0,0,72,261.801,478.851)"><path d="M0.473,-0.48c0.022,0 0.04,0.006 0.055,0.017c0.015,0.011 0.022,0.028 0.022,0.05c0,0.015 -0.004,0.028 -0.011,0.037c-0.007,0.009 -0.018,0.014 -0.033,0.014c-0.013,0 -0.024,-0.003 -0.031,-0.01c-0.006,-0.007 -0.01,-0.015 -0.01,-0.024c0,-0.007 0.001,-0.012 0.002,-0.016c0.001,-0.005 0.002,-0.008 0.002,-0.011c0,-0.003 -0.001,-0.005 -0.004,-0.008c-0.003,-0.003 -0.008,-0.004 -0.016,-0.004c-0.015,0 -0.028,0.007 -0.039,0.022c0.019,0.026 0.029,0.057 0.029,0.092c0,0.053 -0.019,0.093 -0.057,0.118c-0.038,0.025 -0.085,0.037 -0.142,0.037c-0.023,0 -0.046,-0.002 -0.067,-0.006c-0.015,0.012 -0.023,0.023 -0.023,0.032c0,0.008 0.005,0.015 0.016,0.022c0.011,0.006 0.027,0.009 0.049,0.009l0.091,0c0.058,0 0.103,0.013 0.134,0.038c0.031,0.025 0.047,0.06 0.047,0.107c0,0.058 -0.023,0.102 -0.069,0.131c-0.046,0.03 -0.104,0.045 -0.175,0.045c-0.063,-0 -0.114,-0.011 -0.153,-0.034c-0.04,-0.023 -0.06,-0.056 -0.06,-0.099c0,-0.023 0.007,-0.043 0.021,-0.058c0.013,-0.015 0.036,-0.027 0.069,-0.037c-0.021,-0.007 -0.037,-0.018 -0.048,-0.031c-0.012,-0.013 -0.018,-0.028 -0.018,-0.045c0,-0.034 0.026,-0.065 0.078,-0.092c-0.062,-0.025 -0.093,-0.07 -0.093,-0.135c0,-0.055 0.02,-0.095 0.061,-0.12c0.041,-0.026 0.089,-0.039 0.144,-0.039c0.028,0 0.055,0.004 0.08,0.011c0.025,0.007 0.046,0.017 0.064,0.032c0.021,-0.03 0.05,-0.045 0.085,-0.045Zm-0.231,0.274c0.029,0 0.05,-0.01 0.065,-0.031c0.015,-0.021 0.022,-0.051 0.022,-0.089c0,-0.037 -0.006,-0.064 -0.017,-0.083c-0.011,-0.019 -0.033,-0.028 -0.066,-0.028c-0.033,0 -0.056,0.01 -0.068,0.029c-0.012,0.019 -0.018,0.048 -0.018,0.087c0,0.038 0.006,0.067 0.017,0.086c0.011,0.019 0.033,0.029 0.065,0.029Zm0.151,0.28c0,-0.028 -0.011,-0.049 -0.034,-0.062c-0.023,-0.013 -0.058,-0.019 -0.105,-0.019l-0.065,-0c-0.036,0.014 -0.054,0.039 -0.054,0.076c0,0.031 0.012,0.056 0.037,0.075c0.025,0.019 0.056,0.029 0.093,0.029c0.035,-0 0.066,-0.009 0.091,-0.026c0.025,-0.017 0.037,-0.042 0.037,-0.073Z" style="fill:#736f4e;fill-rule:nonzero;"/></g></g><g transform="matrix(0.938545,-0.345156,0.345156,0.938545,-144.332,133.768)"><g transform="matrix(72,0,0,72,303.484,472.201)"><path d="M0.47,-0.229l-0.3,0c0.002,0.057 0.013,0.101 0.033,0.131c0.02,0.03 0.054,0.045 0.101,0.045c0.033,0 0.06,-0.007 0.081,-0.022c0.021,-0.015 0.038,-0.038 0.051,-0.068l0.031,0.018c-0.017,0.041 -0.04,0.073 -0.07,0.098c-0.03,0.025 -0.075,0.037 -0.135,0.037c-0.143,-0 -0.215,-0.081 -0.215,-0.243c-0,-0.082 0.018,-0.144 0.054,-0.185c0.037,-0.041 0.09,-0.062 0.16,-0.062c0.073,0 0.126,0.021 0.159,0.064c0.033,0.043 0.05,0.101 0.05,0.174l-0,0.013Zm-0.122,-0.04c-0,-0.059 -0.005,-0.103 -0.016,-0.13c-0.011,-0.027 -0.033,-0.041 -0.067,-0.041c-0.033,-0 -0.057,0.014 -0.072,0.041c-0.015,0.027 -0.023,0.071 -0.024,0.13l0.179,-0Z" style="fill:#736f4e;fill-rule:nonzero;"/></g></g><g transform="matrix(0.815296,-0.579045,0.579045,0.815296,-203.507,282.367)"><g transform="matrix(72,0,0,72,340.855,460.179)"><path d="M0.813,-0.083c-0,0.015 0.001,0.025 0.004,0.032c0.003,0.007 0.009,0.011 0.018,0.014c0.009,0.003 0.023,0.004 0.043,0.004l-0,0.033l-0.237,-0l-0,-0.033c0.018,0 0.031,-0.001 0.038,-0.002c0.007,-0.002 0.012,-0.006 0.015,-0.012c0.003,-0.006 0.004,-0.016 0.004,-0.031l-0,-0.24c-0,-0.031 -0.008,-0.055 -0.023,-0.072c-0.015,-0.017 -0.036,-0.025 -0.063,-0.025c-0.019,0 -0.037,0.004 -0.053,0.013c-0.015,0.009 -0.03,0.022 -0.045,0.041l0,0.278c0,0.014 0.001,0.025 0.004,0.032c0.003,0.007 0.008,0.011 0.016,0.014c0.008,0.003 0.02,0.004 0.037,0.004l-0,0.033l-0.23,0l-0,-0.033c0.018,0 0.031,-0.001 0.038,-0.002c0.007,-0.002 0.012,-0.006 0.015,-0.012c0.003,-0.006 0.005,-0.016 0.005,-0.031l-0,-0.24c-0,-0.031 -0.008,-0.055 -0.023,-0.072c-0.015,-0.017 -0.036,-0.025 -0.065,-0.025c-0.038,0 -0.07,0.015 -0.096,0.045l-0,0.292c-0,0.015 0.001,0.025 0.004,0.031c0.003,0.006 0.009,0.01 0.016,0.012c0.007,0.001 0.019,0.002 0.036,0.002l0,0.033l-0.237,0l0,-0.033c0.02,0 0.034,-0.001 0.043,-0.004c0.009,-0.003 0.014,-0.007 0.017,-0.014c0.003,-0.007 0.004,-0.017 0.004,-0.032l-0,-0.289c-0,-0.018 -0.002,-0.03 -0.006,-0.036c-0.004,-0.007 -0.011,-0.01 -0.022,-0.01l-0.03,0l-0,-0.034l0.144,-0.023l0.028,0l-0,0.062c0.026,-0.021 0.054,-0.038 0.083,-0.049c0.029,-0.012 0.057,-0.018 0.084,-0.018c0.031,0 0.058,0.007 0.08,0.022c0.023,0.015 0.038,0.033 0.047,0.054c0.021,-0.023 0.048,-0.041 0.079,-0.055c0.032,-0.014 0.064,-0.021 0.095,-0.021c0.042,0 0.075,0.013 0.098,0.039c0.023,0.025 0.035,0.061 0.035,0.108l-0,0.25Z" style="fill:#736f4e;fill-rule:nonzero;"/></g></g><g transform="matrix(0.54366,-0.839305,0.839305,0.54366,-153.64,527.274)"><g transform="matrix(72,0,0,72,408.065,404.926)"><path d="M0.044,-0.033c0.025,0 0.042,-0.002 0.053,-0.004c0.011,-0.003 0.018,-0.009 0.021,-0.016c0.003,-0.007 0.005,-0.019 0.005,-0.036l-0,-0.481c-0,-0.017 -0.002,-0.03 -0.005,-0.038c-0.003,-0.007 -0.01,-0.012 -0.021,-0.015c-0.011,-0.003 -0.028,-0.004 -0.053,-0.004l-0,-0.033l0.489,0l0,0.167l-0.026,0c-0.008,-0.034 -0.017,-0.06 -0.026,-0.078c-0.009,-0.017 -0.023,-0.03 -0.041,-0.038c-0.019,-0.008 -0.045,-0.012 -0.079,-0.012l-0.078,0c-0.015,0 -0.025,0.002 -0.03,0.007c-0.006,0.005 -0.008,0.014 -0.008,0.027l0,0.22l0.099,0c0.023,0 0.041,-0.003 0.053,-0.008c0.011,-0.005 0.02,-0.013 0.025,-0.024c0.005,-0.011 0.009,-0.029 0.014,-0.053l0.025,0l0,0.212l-0.025,0c-0.005,-0.024 -0.01,-0.041 -0.015,-0.052c-0.005,-0.011 -0.013,-0.018 -0.024,-0.023c-0.012,-0.005 -0.03,-0.008 -0.053,-0.008l-0.099,0l0,0.218c0,0.02 0.003,0.034 0.008,0.043c0.005,0.009 0.015,0.015 0.032,0.018c0.016,0.003 0.043,0.005 0.081,0.005c0.038,0 0.068,-0.005 0.09,-0.014c0.021,-0.009 0.038,-0.024 0.05,-0.044c0.012,-0.02 0.023,-0.049 0.034,-0.087l0.025,0l-0.012,0.184l-0.509,0l-0,-0.033Z" style="fill:#736f4e;fill-rule:nonzero;"/></g></g><g transform="matrix(0.355609,-0.934635,0.934635,0.355609,-63.9279,640.258)"><g transform="matrix(72,0,0,72,432.356,366.49)"><path d="M0.427,-0.077c0.011,0.017 0.023,0.028 0.034,0.034c0.011,0.007 0.027,0.01 0.048,0.01l0,0.033l-0.24,-0l0,-0.033l0.019,-0c0.013,-0 0.02,-0.005 0.02,-0.014c-0,-0.006 -0.002,-0.012 -0.007,-0.019l-0.071,-0.109l-0.074,0.105c-0.005,0.007 -0.007,0.013 -0.007,0.02c-0,0.005 0.002,0.009 0.005,0.012c0.004,0.003 0.009,0.005 0.016,0.005l0.022,-0l-0,0.033l-0.182,-0l-0,-0.033c0.021,-0 0.038,-0.003 0.052,-0.01c0.015,-0.006 0.028,-0.017 0.041,-0.034l0.104,-0.132l-0.128,-0.197c-0.008,-0.012 -0.017,-0.02 -0.026,-0.024c-0.009,-0.005 -0.024,-0.007 -0.043,-0.007l-0,-0.033l0.22,0l-0,0.033l-0.016,0c-0.005,0 -0.009,0.001 -0.012,0.004c-0.003,0.002 -0.004,0.005 -0.004,0.008c0,0.004 0.002,0.009 0.005,0.014l0.069,0.103l0.07,-0.105c0.003,-0.005 0.005,-0.01 0.005,-0.013c-0,-0.004 -0.002,-0.007 -0.005,-0.008c-0.003,-0.002 -0.006,-0.003 -0.01,-0.003l-0.024,0l0,-0.033l0.164,0l0,0.033c-0.02,0 -0.036,0.003 -0.048,0.008c-0.013,0.005 -0.023,0.013 -0.032,0.024l-0.098,0.13l0.133,0.198Z" style="fill:#736f4e;fill-rule:nonzero;"/></g></g><g transform="matrix(0.188383,-0.982096,0.982096,0.188383,40.7657,703.848)"><g transform="matrix(72,0,0,72,446.228,327.26)"><path d="M0.185,0.011c-0.037,-0 -0.065,-0.01 -0.086,-0.031c-0.021,-0.02 -0.031,-0.049 -0.031,-0.086l0,-0.324l-0.059,0l0,-0.033c0.035,-0.011 0.062,-0.029 0.083,-0.055c0.021,-0.027 0.037,-0.063 0.049,-0.109l0.042,0l-0,0.157l0.107,0l-0,0.04l-0.107,0l-0,0.289c-0,0.03 0.006,0.052 0.017,0.067c0.011,0.015 0.029,0.022 0.053,0.022c0.018,0 0.035,-0.003 0.05,-0.01l0.011,0.025c-0.025,0.016 -0.046,0.028 -0.064,0.036c-0.017,0.008 -0.039,0.012 -0.065,0.012Z" style="fill:#736f4e;fill-rule:nonzero;"/></g></g><g transform="matrix(0.0340763,-0.999419,0.999419,0.0340763,134.824,742.09)"><g transform="matrix(72,0,0,72,451.324,301.295)"><path d="M0.337,-0.481c0.029,0 0.05,0.008 0.064,0.024c0.013,0.017 0.02,0.037 0.02,0.06c-0,0.022 -0.006,0.039 -0.017,0.051c-0.011,0.013 -0.027,0.019 -0.048,0.019c-0.018,-0 -0.032,-0.005 -0.043,-0.014c-0.01,-0.009 -0.015,-0.022 -0.015,-0.039c-0,-0.01 0.001,-0.018 0.004,-0.024c0.003,-0.006 0.007,-0.012 0.012,-0.017c0.005,-0.005 0.008,-0.009 0.008,-0.011c-0,-0.003 -0.001,-0.005 -0.003,-0.007c-0.002,-0.002 -0.005,-0.003 -0.01,-0.003c-0.012,0 -0.025,0.008 -0.04,0.023c-0.015,0.015 -0.027,0.036 -0.038,0.062c-0.011,0.025 -0.016,0.053 -0.016,0.082l-0,0.192c-0,0.015 0.002,0.025 0.005,0.032c0.004,0.007 0.012,0.011 0.023,0.014c0.011,0.003 0.03,0.004 0.055,0.004l-0,0.033l-0.264,-0l-0,-0.033c0.02,-0 0.034,-0.002 0.043,-0.005c0.009,-0.003 0.014,-0.007 0.017,-0.014c0.003,-0.007 0.004,-0.017 0.004,-0.031l-0,-0.289c-0,-0.018 -0.002,-0.03 -0.006,-0.037c-0.004,-0.006 -0.011,-0.009 -0.022,-0.009l-0.03,-0l-0,-0.034l0.144,-0.023l0.028,0l-0,0.087l0.002,-0c0.029,-0.062 0.07,-0.093 0.123,-0.093Z" style="fill:#736f4e;fill-rule:nonzero;"/></g></g><g transform="matrix(-0.15122,-0.9885,0.9885,-0.15122,257.055,755.055)"><g transform="matrix(72,0,0,72,452.693,267.167)"><path d="M0.506,-0.021c-0.015,0.009 -0.031,0.016 -0.047,0.022c-0.018,0.006 -0.039,0.009 -0.064,0.009c-0.027,-0 -0.047,-0.004 -0.058,-0.013c-0.012,-0.009 -0.018,-0.027 -0.018,-0.054c-0.023,0.02 -0.046,0.036 -0.07,0.049c-0.024,0.012 -0.051,0.018 -0.08,0.018c-0.036,-0 -0.066,-0.009 -0.089,-0.026c-0.023,-0.017 -0.035,-0.042 -0.035,-0.074c0,-0.045 0.024,-0.085 0.073,-0.119c0.048,-0.035 0.115,-0.06 0.201,-0.075l0,-0.061c-0.001,-0.028 -0.008,-0.049 -0.022,-0.063c-0.013,-0.014 -0.037,-0.021 -0.071,-0.021c-0.019,0 -0.035,0.003 -0.048,0.009c-0.014,0.005 -0.021,0.011 -0.021,0.017c0,0.006 0.004,0.013 0.012,0.021c0.005,0.006 0.009,0.011 0.012,0.016c0.003,0.005 0.004,0.011 0.004,0.019c-0,0.017 -0.005,0.03 -0.015,0.039c-0.01,0.01 -0.023,0.015 -0.04,0.015c-0.017,0 -0.031,-0.005 -0.042,-0.016c-0.011,-0.011 -0.016,-0.025 -0.016,-0.042c-0,-0.022 0.008,-0.043 0.024,-0.062c0.017,-0.019 0.04,-0.035 0.071,-0.047c0.031,-0.011 0.068,-0.017 0.11,-0.017c0.053,0 0.092,0.011 0.117,0.033c0.025,0.022 0.038,0.06 0.038,0.114l0,0.222c0,0.026 0.003,0.044 0.009,0.053c0.005,0.01 0.014,0.015 0.027,0.015c0.007,-0 0.013,-0.001 0.018,-0.004c0.005,-0.002 0.009,-0.003 0.01,-0.004l0.01,0.027Zm-0.348,-0.104c0,0.042 0.025,0.063 0.074,0.063c0.027,-0 0.056,-0.012 0.087,-0.037l0,-0.146c-0.055,0.012 -0.096,0.027 -0.122,0.046c-0.026,0.019 -0.039,0.044 -0.039,0.074Z" style="fill:#736f4e;fill-rule:nonzero;"/></g></g></g><circle cx="256" cy="256" r="135" style="fill:none;stroke:#736f4e;stroke-width:4px;"/><circle cx="111.698" cy="152.324" r="8" style="fill:#736f4e;"/><circle cx="399.7" cy="152.324" r="8" style="fill:#736f4e;"/><path d="M201.29,143.707c12.175,2.74 28.961,15.089 37.515,37.142c5.806,14.968 9.764,31.4 9.764,52.151c0,69.751 -22.494,66.49 -22.494,93c-0,16.557 13.442,30 30,30c16.557,-0 30,-13.443 30,-30c-0,-25.51 -22.502,-22.294 -22.502,-93c0,-41.642 17.5,-63.257 22.502,-68.374c12.667,-12.961 20.485,-18.492 25.218,-20.706c41.324,20.398 69.782,62.979 69.782,112.155c-0,68.989 -56.011,125 -125,125c-68.989,-0 -125,-56.011 -125,-125c-0,-49.341 28.65,-92.044 70.215,-112.368Z" style="fill:#736f4e;stroke:#736f4e;stroke-width:4px;"/></g></svg>