<?xml version="1.0" encoding="UTF-8" standalone="no"?><!DOCTYPE svg PUBLIC "-//W3C//DTD SVG 1.1//EN" "http://www.w3.org/Graphics/SVG/1.1/DTD/svg11.dtd"><svg width="100%" height="100%" viewBox="0 0 512 512" version="1.1" xmlns="http://www.w3.org/2000/svg" xmlns:xlink="http://www.w3.org/1999/xlink" xml:space="preserve" xmlns:serif="http://www.serif.com/" style="fill-rule:evenodd;clip-rule:evenodd;stroke-linecap:round;stroke-linejoin:round;stroke-miterlimit:1.5;"><rect id="Artboard1" x="0" y="0" width="512" height="512" style="fill:none;"/><g id="Artboard11" serif:id="Artboard1"><circle cx="256" cy="256" r="227" style="fill:#fff;stroke:#736f4e;stroke-width:8px;"/><g transform="matrix(1,0,0,1,4,-22)"><g transform="matrix(0.916063,-0.401033,0.401033,0.916063,-43.2993,79.8161)"><g transform="matrix(70,0,0,70,169.024,143.346)"><path d="M0.383,0.017c-0.065,-0 -0.124,-0.014 -0.176,-0.042c-0.051,-0.027 -0.092,-0.067 -0.122,-0.119c-0.029,-0.053 -0.044,-0.115 -0.044,-0.188c-0,-0.073 0.015,-0.135 0.046,-0.187c0.031,-0.052 0.073,-0.092 0.125,-0.119c0.053,-0.028 0.111,-0.042 0.174,-0.042c0.033,0 0.065,0.004 0.098,0.011c0.033,0.007 0.065,0.02 0.097,0.038l0.004,0.15l-0.069,0l-0.024,-0.124c-0.015,-0.008 -0.029,-0.014 -0.044,-0.017c-0.015,-0.003 -0.029,-0.005 -0.044,-0.005c-0.04,0 -0.077,0.011 -0.111,0.032c-0.033,0.022 -0.06,0.055 -0.081,0.098c-0.02,0.044 -0.03,0.099 -0.03,0.166c-0,0.066 0.009,0.121 0.028,0.164c0.019,0.044 0.045,0.077 0.078,0.098c0.033,0.021 0.069,0.032 0.11,0.032c0.034,-0 0.068,-0.008 0.103,-0.023l0.024,-0.122l0.068,-0l-0.004,0.149c-0.029,0.016 -0.06,0.028 -0.095,0.037c-0.035,0.009 -0.072,0.013 -0.111,0.013Z" style="fill:#736f4e;fill-rule:nonzero;"/></g></g><g transform="matrix(0.98613,-0.165974,0.165974,0.98613,-18.1806,36.0543)"><g transform="matrix(70,0,0,70,206.632,126.806)"><path d="M0.415,0.012c-0.027,-0 -0.048,-0.007 -0.065,-0.02c-0.017,-0.013 -0.028,-0.032 -0.034,-0.055c-0.025,0.025 -0.047,0.045 -0.067,0.058c-0.02,0.012 -0.046,0.019 -0.078,0.019c-0.037,-0 -0.069,-0.011 -0.095,-0.033c-0.025,-0.021 -0.038,-0.052 -0.038,-0.093c-0,-0.021 0.005,-0.041 0.015,-0.06c0.01,-0.018 0.028,-0.035 0.053,-0.051c0.026,-0.016 0.063,-0.032 0.111,-0.047c0.013,-0.005 0.028,-0.009 0.045,-0.014c0.017,-0.005 0.034,-0.009 0.051,-0.014l0,-0.028c0,-0.047 -0.007,-0.078 -0.02,-0.094c-0.012,-0.017 -0.035,-0.025 -0.068,-0.025c-0.006,0 -0.012,0 -0.019,0.001c-0.007,0.001 -0.015,0.002 -0.022,0.003l-0.012,0.055c-0.003,0.024 -0.01,0.042 -0.021,0.053c-0.011,0.011 -0.025,0.017 -0.042,0.017c-0.032,0 -0.051,-0.015 -0.056,-0.045c0.006,-0.04 0.028,-0.072 0.065,-0.096c0.037,-0.024 0.085,-0.036 0.146,-0.036c0.058,0 0.1,0.014 0.127,0.042c0.027,0.027 0.04,0.074 0.04,0.139l0,0.218c0,0.03 0.01,0.045 0.029,0.045c0.013,0 0.024,-0.007 0.035,-0.022l0.023,0.02c-0.012,0.023 -0.026,0.039 -0.043,0.049c-0.016,0.009 -0.036,0.014 -0.06,0.014Zm-0.26,-0.145c-0,0.026 0.007,0.045 0.02,0.057c0.014,0.011 0.031,0.017 0.051,0.017c0.011,0 0.023,-0.003 0.034,-0.008c0.011,-0.005 0.029,-0.016 0.053,-0.033l0,-0.158c-0.014,0.005 -0.027,0.009 -0.039,0.013c-0.013,0.004 -0.023,0.008 -0.032,0.011c-0.033,0.013 -0.056,0.029 -0.069,0.046c-0.012,0.017 -0.018,0.036 -0.018,0.055Z" style="fill:#736f4e;fill-rule:nonzero;"/></g></g><g transform="matrix(0.999364,0.0356599,-0.0356599,0.999364,4.46553,-8.53133)"><g transform="matrix(70,0,0,70,241.398,120.92)"><path d="M0.035,-0l0,-0.041l0.064,-0.012c0.001,-0.025 0.001,-0.052 0.001,-0.082l0,-0.128c0,-0.027 -0,-0.049 -0.001,-0.066c0,-0.016 -0.001,-0.034 -0.002,-0.054l-0.07,-0.009l0,-0.038l0.167,-0.063l0.016,0.01l0.01,0.118c0.015,-0.041 0.036,-0.073 0.062,-0.095c0.026,-0.022 0.052,-0.033 0.078,-0.033c0.018,0 0.034,0.005 0.049,0.014c0.015,0.009 0.025,0.023 0.03,0.04c-0.001,0.025 -0.007,0.044 -0.018,0.057c-0.011,0.014 -0.027,0.021 -0.047,0.021c-0.024,0 -0.047,-0.012 -0.068,-0.036l-0.009,-0.01c-0.035,0.029 -0.061,0.071 -0.076,0.124l-0,0.147c-0,0.028 0,0.054 0.001,0.079l0.082,0.016l-0,0.041l-0.269,0Z" style="fill:#736f4e;fill-rule:nonzero;"/></g></g><g transform="matrix(0.9815,0.191463,-0.191463,0.9815,28.3407,-49.4425)"><g transform="matrix(70,0,0,70,270.017,121.931)"><path d="M0.211,0.014c-0.04,-0 -0.071,-0.01 -0.094,-0.03c-0.023,-0.02 -0.034,-0.052 -0.034,-0.096c0,-0.015 0,-0.03 0.001,-0.043c-0,-0.014 0,-0.031 0,-0.05l0,-0.213l-0.074,0l0,-0.052l0.081,-0.01l0.038,-0.137l0.081,0l-0.004,0.138l0.12,0l0,0.061l-0.121,0l-0,0.295c-0,0.025 0.005,0.043 0.014,0.054c0.01,0.011 0.023,0.017 0.039,0.017c0.018,0 0.038,-0.008 0.061,-0.025l0.024,0.025c-0.013,0.021 -0.03,0.037 -0.052,0.049c-0.022,0.011 -0.049,0.017 -0.08,0.017Z" style="fill:#736f4e;fill-rule:nonzero;"/></g></g><g transform="matrix(0.928491,0.371356,-0.371356,0.928491,67.4057,-99.4653)"><g transform="matrix(70,0,0,70,291.97,125.29)"><path d="M0.415,0.012c-0.027,-0 -0.048,-0.007 -0.065,-0.02c-0.017,-0.013 -0.028,-0.032 -0.034,-0.055c-0.025,0.025 -0.047,0.045 -0.067,0.058c-0.02,0.012 -0.046,0.019 -0.078,0.019c-0.037,-0 -0.069,-0.011 -0.095,-0.033c-0.025,-0.021 -0.038,-0.052 -0.038,-0.093c-0,-0.021 0.005,-0.041 0.015,-0.06c0.01,-0.018 0.028,-0.035 0.053,-0.051c0.026,-0.016 0.063,-0.032 0.111,-0.047c0.013,-0.005 0.028,-0.009 0.045,-0.014c0.017,-0.005 0.034,-0.009 0.051,-0.014l0,-0.028c0,-0.047 -0.007,-0.078 -0.02,-0.094c-0.012,-0.017 -0.035,-0.025 -0.068,-0.025c-0.006,0 -0.012,0 -0.019,0.001c-0.007,0.001 -0.015,0.002 -0.022,0.003l-0.012,0.055c-0.003,0.024 -0.01,0.042 -0.021,0.053c-0.011,0.011 -0.025,0.017 -0.042,0.017c-0.032,0 -0.051,-0.015 -0.056,-0.045c0.006,-0.04 0.028,-0.072 0.065,-0.096c0.037,-0.024 0.085,-0.036 0.146,-0.036c0.058,0 0.1,0.014 0.127,0.042c0.027,0.027 0.04,0.074 0.04,0.139l0,0.218c0,0.03 0.01,0.045 0.029,0.045c0.013,0 0.024,-0.007 0.035,-0.022l0.023,0.02c-0.012,0.023 -0.026,0.039 -0.043,0.049c-0.016,0.009 -0.036,0.014 -0.06,0.014Zm-0.26,-0.145c-0,0.026 0.007,0.045 0.02,0.057c0.014,0.011 0.031,0.017 0.051,0.017c0.011,0 0.023,-0.003 0.034,-0.008c0.011,-0.005 0.029,-0.016 0.053,-0.033l0,-0.158c-0.014,0.005 -0.027,0.009 -0.039,0.013c-0.013,0.004 -0.023,0.008 -0.032,0.011c-0.033,0.013 -0.056,0.029 -0.069,0.046c-0.012,0.017 -0.018,0.036 -0.018,0.055Z" style="fill:#736f4e;fill-rule:nonzero;"/></g></g><g transform="matrix(-0.112156,0.993691,-0.993691,-0.112156,292.946,202.795)"><g transform="matrix(70,0,0,70,55.8761,232.269)"><path d="M0.3,-0.534l-0.092,0.277l0.183,0l-0.091,-0.277Zm-0.293,0.534l-0,-0.047l0.082,-0.012l0.209,-0.608l0.082,0l0.209,0.613l0.068,0.008l0,0.046l-0.289,0l-0,-0.046l0.088,-0.011l-0.048,-0.148l-0.218,0l-0.048,0.145l0.087,0.013l-0,0.047l-0.222,0Z" style="fill:#736f4e;fill-rule:nonzero;"/></g></g><g transform="matrix(0.091728,0.995784,-0.995784,0.091728,325.84,203.511)"><g transform="matrix(70,0,0,70,51.3603,280.373)"><path d="M0.024,-0l0,-0.037l0.269,-0.398l-0.17,0l-0.027,0.111l-0.066,-0.004l0.008,-0.151l0.39,0l-0,0.037l-0.265,0.398l0.182,-0l0.029,-0.121l0.066,-0l-0.01,0.165l-0.406,-0Z" style="fill:#736f4e;fill-rule:nonzero;"/></g></g><g transform="matrix(0.269328,0.963048,-0.963048,0.269328,342.834,177.371)"><g transform="matrix(70,0,0,70,54.5266,314.619)"><path d="M0.273,-0.445c-0.016,0 -0.032,0.005 -0.048,0.016c-0.015,0.01 -0.029,0.027 -0.04,0.05c-0.011,0.023 -0.017,0.055 -0.02,0.095l0.137,0c0.024,0 0.04,-0.005 0.048,-0.015c0.008,-0.01 0.012,-0.024 0.012,-0.042c-0,-0.031 -0.009,-0.056 -0.026,-0.075c-0.017,-0.019 -0.038,-0.029 -0.063,-0.029Zm0,0.459c-0.047,-0 -0.088,-0.01 -0.123,-0.03c-0.035,-0.02 -0.063,-0.049 -0.083,-0.086c-0.02,-0.038 -0.03,-0.083 -0.03,-0.135c-0,-0.053 0.011,-0.099 0.034,-0.137c0.023,-0.039 0.053,-0.068 0.09,-0.088c0.037,-0.021 0.077,-0.031 0.119,-0.031c0.039,0 0.074,0.008 0.103,0.025c0.029,0.017 0.052,0.04 0.069,0.07c0.016,0.03 0.024,0.065 0.024,0.106c-0,0.021 -0.002,0.04 -0.006,0.055l-0.306,0c0.003,0.057 0.018,0.1 0.045,0.129c0.028,0.029 0.063,0.043 0.105,0.043c0.029,0 0.054,-0.006 0.075,-0.017c0.02,-0.012 0.038,-0.027 0.055,-0.046l0.029,0.026c-0.019,0.037 -0.046,0.065 -0.08,0.086c-0.033,0.02 -0.073,0.03 -0.12,0.03Z" style="fill:#736f4e;fill-rule:nonzero;"/></g></g><g transform="matrix(0.414982,0.90983,-0.90983,0.414982,357.775,145.815)"><g transform="matrix(70,0,0,70,65.5002,351.116)"><path d="M0.032,-0l0,-0.041l0.066,-0.013c0.001,-0.025 0.001,-0.051 0.001,-0.081l0,-0.122c0,-0.027 -0,-0.05 -0.001,-0.069c0,-0.018 -0.001,-0.037 -0.002,-0.057l-0.071,-0.009l0,-0.038l0.18,-0.063l0.016,0.01l-0.003,0.141l0,0.207c0,0.029 0,0.057 0.001,0.082l0.061,0.012l0,0.041l-0.248,-0Zm0.126,-0.586c-0.021,0 -0.039,-0.007 -0.054,-0.02c-0.015,-0.013 -0.022,-0.03 -0.022,-0.051c0,-0.021 0.007,-0.039 0.022,-0.052c0.015,-0.013 0.033,-0.02 0.054,-0.02c0.021,0 0.039,0.007 0.054,0.02c0.014,0.013 0.021,0.031 0.021,0.052c0,0.021 -0.007,0.038 -0.021,0.051c-0.015,0.013 -0.033,0.02 -0.054,0.02Z" style="fill:#736f4e;fill-rule:nonzero;"/></g></g><g transform="matrix(0.526503,0.850173,-0.850173,0.526503,352.432,112.37)"><g transform="matrix(70,0,0,70,75.3343,372.584)"><path d="M0.211,0.014c-0.04,-0 -0.071,-0.01 -0.094,-0.03c-0.023,-0.02 -0.034,-0.052 -0.034,-0.096c0,-0.015 0,-0.03 0.001,-0.043c-0,-0.014 0,-0.031 0,-0.05l0,-0.213l-0.074,0l0,-0.052l0.081,-0.01l0.038,-0.137l0.081,0l-0.004,0.138l0.12,0l0,0.061l-0.121,0l-0,0.295c-0,0.025 0.005,0.043 0.014,0.054c0.01,0.011 0.023,0.017 0.039,0.017c0.018,0 0.038,-0.008 0.061,-0.025l0.024,0.025c-0.013,0.021 -0.03,0.037 -0.052,0.049c-0.022,0.011 -0.049,0.017 -0.08,0.017Z" style="fill:#736f4e;fill-rule:nonzero;"/></g></g><g transform="matrix(0.65084,0.759215,-0.759215,0.65084,330.329,70.5856)"><g transform="matrix(70,0,0,70,88.4238,394.428)"><path d="M0.273,-0.445c-0.016,0 -0.032,0.005 -0.048,0.016c-0.015,0.01 -0.029,0.027 -0.04,0.05c-0.011,0.023 -0.017,0.055 -0.02,0.095l0.137,0c0.024,0 0.04,-0.005 0.048,-0.015c0.008,-0.01 0.012,-0.024 0.012,-0.042c-0,-0.031 -0.009,-0.056 -0.026,-0.075c-0.017,-0.019 -0.038,-0.029 -0.063,-0.029Zm0,0.459c-0.047,-0 -0.088,-0.01 -0.123,-0.03c-0.035,-0.02 -0.063,-0.049 -0.083,-0.086c-0.02,-0.038 -0.03,-0.083 -0.03,-0.135c-0,-0.053 0.011,-0.099 0.034,-0.137c0.023,-0.039 0.053,-0.068 0.09,-0.088c0.037,-0.021 0.077,-0.031 0.119,-0.031c0.039,0 0.074,0.008 0.103,0.025c0.029,0.017 0.052,0.04 0.069,0.07c0.016,0.03 0.024,0.065 0.024,0.106c-0,0.021 -0.002,0.04 -0.006,0.055l-0.306,0c0.003,0.057 0.018,0.1 0.045,0.129c0.028,0.029 0.063,0.043 0.105,0.043c0.029,0 0.054,-0.006 0.075,-0.017c0.02,-0.012 0.038,-0.027 0.055,-0.046l0.029,0.026c-0.019,0.037 -0.046,0.065 -0.08,0.086c-0.033,0.02 -0.073,0.03 -0.12,0.03Z" style="fill:#736f4e;fill-rule:nonzero;"/></g></g><g transform="matrix(0.773111,0.634271,-0.634271,0.773111,293.726,24.1942)"><g transform="matrix(70,0,0,70,113.045,422.653)"><path d="M0.202,0.014c-0.031,-0 -0.059,-0.004 -0.085,-0.011c-0.025,-0.007 -0.051,-0.017 -0.076,-0.031l-0.001,-0.116l0.067,0l0.018,0.093c0.024,0.01 0.05,0.015 0.078,0.015c0.034,0 0.059,-0.006 0.076,-0.018c0.017,-0.012 0.025,-0.029 0.025,-0.05c-0,-0.019 -0.007,-0.034 -0.02,-0.045c-0.013,-0.012 -0.036,-0.023 -0.068,-0.034l-0.05,-0.017c-0.037,-0.012 -0.067,-0.03 -0.089,-0.053c-0.021,-0.023 -0.032,-0.053 -0.032,-0.088c-0,-0.028 0.007,-0.054 0.022,-0.077c0.015,-0.023 0.036,-0.041 0.064,-0.054c0.029,-0.014 0.063,-0.021 0.104,-0.021c0.029,0 0.055,0.004 0.078,0.011c0.024,0.007 0.048,0.017 0.071,0.03l-0.005,0.105l-0.066,0l-0.018,-0.084c-0.019,-0.008 -0.039,-0.012 -0.062,-0.012c-0.027,0 -0.047,0.006 -0.062,0.017c-0.015,0.011 -0.022,0.027 -0.022,0.046c-0,0.018 0.006,0.033 0.018,0.043c0.013,0.012 0.036,0.023 0.07,0.034l0.04,0.012c0.049,0.017 0.083,0.037 0.104,0.062c0.021,0.025 0.031,0.054 0.031,0.089c-0,0.045 -0.018,0.082 -0.055,0.111c-0.036,0.029 -0.088,0.043 -0.155,0.043Z" style="fill:#736f4e;fill-rule:nonzero;"/></g></g><g transform="matrix(0.928205,0.372069,-0.372069,0.928205,180.465,-25.3193)"><g transform="matrix(70,0,0,70,155.84,454.959)"><path d="M0.011,-0.616l0,-0.047l0.297,0l0,0.048l-0.09,0.01l0.152,0.447l0.152,-0.446l-0.084,-0.011l0,-0.048l0.224,0l0,0.047l-0.081,0.012l-0.209,0.608l-0.069,-0l-0.224,-0.613l-0.068,-0.007Z" style="fill:#736f4e;fill-rule:nonzero;"/></g></g><g transform="matrix(0.983115,0.182987,-0.182987,0.983115,89.949,-29.4836)"><g transform="matrix(70,0,0,70,204.738,472.668)"><path d="M0.032,-0l0,-0.041l0.066,-0.013c0.001,-0.025 0.001,-0.051 0.001,-0.081l0,-0.122c0,-0.027 -0,-0.05 -0.001,-0.069c0,-0.018 -0.001,-0.037 -0.002,-0.057l-0.071,-0.009l0,-0.038l0.18,-0.063l0.016,0.01l-0.003,0.141l0,0.207c0,0.029 0,0.057 0.001,0.082l0.061,0.012l0,0.041l-0.248,-0Zm0.126,-0.586c-0.021,0 -0.039,-0.007 -0.054,-0.02c-0.015,-0.013 -0.022,-0.03 -0.022,-0.051c0,-0.021 0.007,-0.039 0.022,-0.052c0.015,-0.013 0.033,-0.02 0.054,-0.02c0.021,0 0.039,0.007 0.054,0.02c0.014,0.013 0.021,0.031 0.021,0.052c0,0.021 -0.007,0.038 -0.021,0.051c-0.015,0.013 -0.033,0.02 -0.054,0.02Z" style="fill:#736f4e;fill-rule:nonzero;"/></g></g><g transform="matrix(0.999276,0.0380351,-0.0380351,0.999276,18.3165,-8.32575)"><g transform="matrix(70,0,0,70,227.976,477.233)"><path d="M0.035,-0l0,-0.041l0.064,-0.012c0.001,-0.025 0.001,-0.052 0.001,-0.082l0,-0.128c0,-0.027 -0,-0.049 -0.001,-0.066c0,-0.016 -0.001,-0.034 -0.002,-0.054l-0.07,-0.009l0,-0.038l0.167,-0.063l0.016,0.01l0.01,0.118c0.015,-0.041 0.036,-0.073 0.062,-0.095c0.026,-0.022 0.052,-0.033 0.078,-0.033c0.018,0 0.034,0.005 0.049,0.014c0.015,0.009 0.025,0.023 0.03,0.04c-0.001,0.025 -0.007,0.044 -0.018,0.057c-0.011,0.014 -0.027,0.021 -0.047,0.021c-0.024,0 -0.047,-0.012 -0.068,-0.036l-0.009,-0.01c-0.035,0.029 -0.061,0.071 -0.076,0.124l-0,0.147c-0,0.028 0,0.054 0.001,0.079l0.082,0.016l-0,0.041l-0.269,0Z" style="fill:#736f4e;fill-rule:nonzero;"/></g></g><g transform="matrix(0.989088,-0.147328,0.147328,0.989088,-67.6398,43.9707)"><g transform="matrix(70,0,0,70,263.006,478.59)"><path d="M0.241,-0.212c0.028,0 0.049,-0.011 0.064,-0.033c0.015,-0.022 0.022,-0.051 0.022,-0.088c0,-0.035 -0.007,-0.064 -0.022,-0.085c-0.014,-0.021 -0.034,-0.031 -0.061,-0.031c-0.027,-0 -0.047,0.011 -0.063,0.032c-0.014,0.022 -0.022,0.051 -0.022,0.087c0,0.036 0.007,0.065 0.021,0.086c0.014,0.021 0.034,0.032 0.061,0.032Zm-0.126,0.305c0,0.031 0.011,0.053 0.034,0.067c0.023,0.014 0.055,0.021 0.097,0.021c0.053,-0 0.093,-0.009 0.119,-0.026c0.028,-0.017 0.041,-0.038 0.041,-0.063c0,-0.019 -0.006,-0.035 -0.019,-0.048c-0.013,-0.013 -0.036,-0.02 -0.068,-0.02l-0.111,-0c-0.025,-0 -0.047,-0.002 -0.066,-0.006c-0.018,0.024 -0.027,0.049 -0.027,0.075Zm0.128,-0.261c-0.03,-0 -0.058,-0.004 -0.083,-0.011c-0.013,0.017 -0.019,0.036 -0.019,0.055c0,0.013 0.004,0.023 0.013,0.03c0.008,0.007 0.023,0.011 0.045,0.011l0.125,-0c0.065,-0 0.112,0.012 0.14,0.037c0.028,0.025 0.042,0.058 0.042,0.1c0,0.031 -0.01,0.061 -0.031,0.088c-0.02,0.027 -0.05,0.049 -0.089,0.066c-0.04,0.017 -0.09,0.025 -0.149,0.025c-0.051,-0 -0.093,-0.005 -0.124,-0.016c-0.031,-0.011 -0.053,-0.025 -0.067,-0.043c-0.013,-0.018 -0.02,-0.038 -0.02,-0.06c-0,-0.021 0.007,-0.041 0.021,-0.059c0.014,-0.017 0.037,-0.034 0.069,-0.049c-0.021,-0.007 -0.036,-0.018 -0.046,-0.032c-0.01,-0.013 -0.015,-0.029 -0.015,-0.047c-0,-0.019 0.006,-0.039 0.017,-0.058c0.012,-0.019 0.03,-0.039 0.055,-0.062c-0.053,-0.027 -0.079,-0.072 -0.079,-0.137c-0,-0.049 0.017,-0.089 0.052,-0.119c0.035,-0.029 0.082,-0.044 0.143,-0.044c0.061,-0 0.108,0.014 0.142,0.042l0.113,-0.043l0.015,0.01l0,0.07l-0.097,-0c0.014,0.023 0.021,0.051 0.021,0.084c-0,0.049 -0.017,0.088 -0.051,0.117c-0.034,0.03 -0.082,0.045 -0.143,0.045Z" style="fill:#736f4e;fill-rule:nonzero;"/></g></g><g transform="matrix(0.941827,-0.336099,0.336099,0.941827,-141.212,129.069)"><g transform="matrix(70,0,0,70,302.244,472.463)"><path d="M0.273,-0.445c-0.016,0 -0.032,0.005 -0.048,0.016c-0.015,0.01 -0.029,0.027 -0.04,0.05c-0.011,0.023 -0.017,0.055 -0.02,0.095l0.137,0c0.024,0 0.04,-0.005 0.048,-0.015c0.008,-0.01 0.012,-0.024 0.012,-0.042c-0,-0.031 -0.009,-0.056 -0.026,-0.075c-0.017,-0.019 -0.038,-0.029 -0.063,-0.029Zm0,0.459c-0.047,-0 -0.088,-0.01 -0.123,-0.03c-0.035,-0.02 -0.063,-0.049 -0.083,-0.086c-0.02,-0.038 -0.03,-0.083 -0.03,-0.135c-0,-0.053 0.011,-0.099 0.034,-0.137c0.023,-0.039 0.053,-0.068 0.09,-0.088c0.037,-0.021 0.077,-0.031 0.119,-0.031c0.039,0 0.074,0.008 0.103,0.025c0.029,0.017 0.052,0.04 0.069,0.07c0.016,0.03 0.024,0.065 0.024,0.106c-0,0.021 -0.002,0.04 -0.006,0.055l-0.306,0c0.003,0.057 0.018,0.1 0.045,0.129c0.028,0.029 0.063,0.043 0.105,0.043c0.029,0 0.054,-0.006 0.075,-0.017c0.02,-0.012 0.038,-0.027 0.055,-0.046l0.029,0.026c-0.019,0.037 -0.046,0.065 -0.08,0.086c-0.033,0.02 -0.073,0.03 -0.12,0.03Z" style="fill:#736f4e;fill-rule:nonzero;"/></g></g><g transform="matrix(0.81789,-0.575374,0.575374,0.81789,-202.544,279.933)"><g transform="matrix(70,0,0,70,340.951,459.934)"><path d="M0.034,-0l0,-0.041l0.065,-0.013c0.001,-0.025 0.001,-0.051 0.001,-0.081l0,-0.128c0,-0.027 -0,-0.049 -0.001,-0.066c0,-0.016 -0.001,-0.034 -0.002,-0.054l-0.07,-0.009l0,-0.038l0.167,-0.063l0.016,0.01l0.007,0.078c0.024,-0.027 0.05,-0.049 0.078,-0.065c0.029,-0.015 0.058,-0.023 0.089,-0.023c0.065,0 0.106,0.03 0.125,0.091c0.027,-0.032 0.054,-0.055 0.083,-0.069c0.029,-0.015 0.058,-0.022 0.089,-0.022c0.045,0 0.079,0.014 0.102,0.042c0.023,0.028 0.034,0.073 0.034,0.134l0,0.184c0,0.028 0,0.055 0.001,0.08l0.061,0.012l0,0.041l-0.244,0l0,-0.041l0.062,-0.013c0.001,-0.025 0.001,-0.051 0.001,-0.079l-0,-0.169c-0,-0.042 -0.006,-0.07 -0.017,-0.085c-0.011,-0.015 -0.029,-0.022 -0.054,-0.022c-0.035,0 -0.072,0.017 -0.11,0.051c0.001,0.007 0.001,0.014 0.001,0.021c0.001,0.007 0.001,0.015 0.001,0.023l0,0.181c0,0.028 0,0.055 0.001,0.08l0.06,0.012l-0,0.041l-0.245,0l-0,-0.041l0.064,-0.013c0.001,-0.025 0.001,-0.051 0.001,-0.079l-0,-0.167c-0,-0.041 -0.005,-0.069 -0.016,-0.085c-0.01,-0.016 -0.028,-0.024 -0.054,-0.024c-0.019,0 -0.037,0.005 -0.056,0.014c-0.018,0.009 -0.036,0.021 -0.053,0.036l-0,0.225c-0,0.029 0,0.056 0.001,0.081l0.059,0.012l-0,0.041l-0.247,0Z" style="fill:#736f4e;fill-rule:nonzero;"/></g></g><g transform="matrix(0.558388,-0.82958,0.82958,0.558388,-158.419,516.726)"><g transform="matrix(70,0,0,70,406.132,407.16)"><path d="M0.039,-0.616l0,-0.047l0.504,0l0.007,0.175l-0.07,0l-0.021,-0.122l-0.203,0c-0.001,0.042 -0.001,0.084 -0.002,0.126c0,0.041 0,0.08 0,0.117l0.129,0l0.013,-0.087l0.052,0l0,0.226l-0.052,0l-0.012,-0.086l-0.13,0c0,0.048 0,0.093 0.001,0.136c-0,0.042 0,0.084 0.001,0.125l0.223,-0l0.021,-0.122l0.07,0l-0.007,0.175l-0.524,-0l-0,-0.047l0.084,-0.009c0.001,-0.041 0.002,-0.083 0.002,-0.126l-0,-0.298c-0,-0.042 -0.001,-0.084 -0.002,-0.127l-0.084,-0.009Z" style="fill:#736f4e;fill-rule:nonzero;"/></g></g><g transform="matrix(0.362067,-0.932152,0.932152,0.362067,-67.5146,637.072)"><g transform="matrix(70,0,0,70,431.69,367.862)"><path d="M0.332,-0.437l0,-0.042l0.181,0l0,0.042l-0.058,0.011l-0.13,0.167l0.137,0.206l0.066,0.012l0,0.041l-0.264,-0l0,-0.041l0.06,-0.01l-0.088,-0.133l-0.094,0.131l0.063,0.012l-0,0.041l-0.195,-0l-0,-0.041l0.066,-0.012l0.133,-0.172l-0.131,-0.202l-0.063,-0.01l-0,-0.042l0.251,0l0,0.042l-0.052,0.009l0.085,0.128l0.09,-0.126l-0.057,-0.011Z" style="fill:#736f4e;fill-rule:nonzero;"/></g></g><g transform="matrix(0.178355,-0.983966,0.983966,0.178355,46.161,707.285)"><g transform="matrix(70,0,0,70,446.587,326.002)"><path d="M0.211,0.014c-0.04,-0 -0.071,-0.01 -0.094,-0.03c-0.023,-0.02 -0.034,-0.052 -0.034,-0.096c0,-0.015 0,-0.03 0.001,-0.043c-0,-0.014 0,-0.031 0,-0.05l0,-0.213l-0.074,0l0,-0.052l0.081,-0.01l0.038,-0.137l0.081,0l-0.004,0.138l0.12,0l0,0.061l-0.121,0l-0,0.295c-0,0.025 0.005,0.043 0.014,0.054c0.01,0.011 0.023,0.017 0.039,0.017c0.018,0 0.038,-0.008 0.061,-0.025l0.024,0.025c-0.013,0.021 -0.03,0.037 -0.052,0.049c-0.022,0.011 -0.049,0.017 -0.08,0.017Z" style="fill:#736f4e;fill-rule:nonzero;"/></g></g><g transform="matrix(0.0126842,-0.99992,0.99992,0.0126842,149.178,744.867)"><g transform="matrix(70,0,0,70,451.777,296.892)"><path d="M0.035,-0l0,-0.041l0.064,-0.012c0.001,-0.025 0.001,-0.052 0.001,-0.082l0,-0.128c0,-0.027 -0,-0.049 -0.001,-0.066c0,-0.016 -0.001,-0.034 -0.002,-0.054l-0.07,-0.009l0,-0.038l0.167,-0.063l0.016,0.01l0.01,0.118c0.015,-0.041 0.036,-0.073 0.062,-0.095c0.026,-0.022 0.052,-0.033 0.078,-0.033c0.018,0 0.034,0.005 0.049,0.014c0.015,0.009 0.025,0.023 0.03,0.04c-0.001,0.025 -0.007,0.044 -0.018,0.057c-0.011,0.014 -0.027,0.021 -0.047,0.021c-0.024,0 -0.047,-0.012 -0.068,-0.036l-0.009,-0.01c-0.035,0.029 -0.061,0.071 -0.076,0.124l-0,0.147c-0,0.028 0,0.054 0.001,0.079l0.082,0.016l-0,0.041l-0.269,0Z" style="fill:#736f4e;fill-rule:nonzero;"/></g></g><g transform="matrix(-0.178355,-0.983966,0.983966,-0.178355,275.812,752.917)"><g transform="matrix(70,0,0,70,452.262,261.303)"><path d="M0.415,0.012c-0.027,-0 -0.048,-0.007 -0.065,-0.02c-0.017,-0.013 -0.028,-0.032 -0.034,-0.055c-0.025,0.025 -0.047,0.045 -0.067,0.058c-0.02,0.012 -0.046,0.019 -0.078,0.019c-0.037,-0 -0.069,-0.011 -0.095,-0.033c-0.025,-0.021 -0.038,-0.052 -0.038,-0.093c-0,-0.021 0.005,-0.041 0.015,-0.06c0.01,-0.018 0.028,-0.035 0.053,-0.051c0.026,-0.016 0.063,-0.032 0.111,-0.047c0.013,-0.005 0.028,-0.009 0.045,-0.014c0.017,-0.005 0.034,-0.009 0.051,-0.014l0,-0.028c0,-0.047 -0.007,-0.078 -0.02,-0.094c-0.012,-0.017 -0.035,-0.025 -0.068,-0.025c-0.006,0 -0.012,0 -0.019,0.001c-0.007,0.001 -0.015,0.002 -0.022,0.003l-0.012,0.055c-0.003,0.024 -0.01,0.042 -0.021,0.053c-0.011,0.011 -0.025,0.017 -0.042,0.017c-0.032,0 -0.051,-0.015 -0.056,-0.045c0.006,-0.04 0.028,-0.072 0.065,-0.096c0.037,-0.024 0.085,-0.036 0.146,-0.036c0.058,0 0.1,0.014 0.127,0.042c0.027,0.027 0.04,0.074 0.04,0.139l0,0.218c0,0.03 0.01,0.045 0.029,0.045c0.013,0 0.024,-0.007 0.035,-0.022l0.023,0.02c-0.012,0.023 -0.026,0.039 -0.043,0.049c-0.016,0.009 -0.036,0.014 -0.06,0.014Zm-0.26,-0.145c-0,0.026 0.007,0.045 0.02,0.057c0.014,0.011 0.031,0.017 0.051,0.017c0.011,0 0.023,-0.003 0.034,-0.008c0.011,-0.005 0.029,-0.016 0.053,-0.033l0,-0.158c-0.014,0.005 -0.027,0.009 -0.039,0.013c-0.013,0.004 -0.023,0.008 -0.032,0.011c-0.033,0.013 -0.056,0.029 -0.069,0.046c-0.012,0.017 -0.018,0.036 -0.018,0.055Z" style="fill:#736f4e;fill-rule:nonzero;"/></g></g></g><circle cx="256" cy="256" r="135" style="fill:none;stroke:#736f4e;stroke-width:4px;"/><circle cx="111.465" cy="152.324" r="8" style="fill:#736f4e;"/><circle cx="399.535" cy="152.324" r="8" style="fill:#736f4e;"/><path d="M201.29,143.707c12.175,2.74 28.961,15.089 37.515,37.142c5.806,14.968 9.764,31.4 9.764,52.151c0,69.751 -22.494,66.49 -22.494,93c-0,16.557 13.442,30 30,30c16.557,-0 30,-13.443 30,-30c-0,-25.51 -22.502,-22.294 -22.502,-93c0,-41.642 17.5,-63.257 22.502,-68.374c12.667,-12.961 20.485,-18.492 25.218,-20.706c41.324,20.398 69.782,62.979 69.782,112.155c-0,68.989 -56.011,125 -125,125c-68.989,-0 -125,-56.011 -125,-125c-0,-49.341 28.65,-92.044 70.215,-112.368Z" style="fill:#736f4e;stroke:#736f4e;stroke-width:4px;"/></g></svg>